<svg xmlns="http://www.w3.org/2000/svg" xmlns:xlink="http://www.w3.org/1999/xlink" width="500" zoomAndPan="magnify" viewBox="0 0 375 374.999991" height="500" preserveAspectRatio="xMidYMid meet" version="1.0"><defs><g/><clipPath id="f784bfe9a0"><path d="M 89.492188 251 L 287.492188 251 L 287.492188 350 L 89.492188 350 Z M 89.492188 251 " clip-rule="nonzero"/></clipPath></defs><g clip-path="url(#f784bfe9a0)"><path fill="#212121" d="M 283.5625 262.480469 L 283.03125 262.480469 C 280.449219 262.917969 278.023438 263.792969 275.753906 265.105469 C 273.375 266.53125 271.308594 268.324219 269.5625 270.484375 C 268.574219 271.664062 267.664062 272.902344 266.835938 274.195312 C 267.5 281.222656 268.164062 288.226562 268.808594 295.25 C 272.113281 322.21875 247.796875 344.40625 223.101562 347.785156 C 200.011719 349.769531 176.925781 349.769531 153.835938 347.785156 C 127.210938 346.386719 107.242188 320.773438 108.128906 295.25 C 108.792969 288.113281 109.480469 280.976562 110.148438 273.839844 C 109.386719 272.671875 108.558594 271.554688 107.664062 270.484375 C 105.902344 268.332031 103.832031 266.535156 101.449219 265.105469 C 99.144531 263.78125 96.683594 262.90625 94.0625 262.480469 L 93.929688 262.480469 C 93.578125 262.417969 93.242188 262.324219 92.910156 262.195312 C 92.582031 262.0625 92.265625 261.902344 91.96875 261.714844 C 91.667969 261.523438 91.394531 261.304688 91.136719 261.058594 C 90.882812 260.8125 90.652344 260.542969 90.449219 260.253906 C 90.246094 259.960938 90.074219 259.652344 89.933594 259.328125 C 89.789062 259.003906 89.679688 258.667969 89.605469 258.320312 C 89.527344 257.972656 89.488281 257.625 89.480469 257.269531 C 89.472656 256.914062 89.5 256.5625 89.5625 256.210938 C 89.625 255.863281 89.71875 255.523438 89.847656 255.191406 C 89.976562 254.863281 90.136719 254.546875 90.328125 254.246094 C 90.515625 253.949219 90.734375 253.671875 90.980469 253.414062 C 91.226562 253.160156 91.492188 252.929688 91.785156 252.726562 C 92.074219 252.523438 92.378906 252.347656 92.703125 252.207031 C 93.027344 252.0625 93.363281 251.953125 93.710938 251.878906 C 94.054688 251.800781 94.40625 251.757812 94.761719 251.75 C 95.113281 251.742188 95.464844 251.769531 95.8125 251.832031 L 96.347656 251.941406 C 100.167969 253.019531 103.667969 254.753906 106.839844 257.144531 C 108.464844 258.328125 109.941406 259.667969 111.277344 261.167969 L 112.078125 252.832031 L 264.769531 252.832031 L 265.570312 261.4375 C 266.960938 259.839844 268.507812 258.410156 270.207031 257.144531 C 273.382812 254.777344 276.882812 253.0625 280.703125 252.007812 C 281.042969 251.914062 281.394531 251.855469 281.75 251.832031 C 282.101562 251.804688 282.457031 251.816406 282.808594 251.859375 C 283.164062 251.902344 283.507812 251.984375 283.84375 252.09375 C 284.183594 252.207031 284.507812 252.351562 284.816406 252.527344 C 285.125 252.707031 285.414062 252.910156 285.683594 253.144531 C 285.949219 253.378906 286.195312 253.636719 286.414062 253.917969 C 286.628906 254.199219 286.820312 254.5 286.976562 254.816406 C 287.136719 255.136719 287.265625 255.46875 287.359375 255.8125 C 287.453125 256.15625 287.511719 256.503906 287.535156 256.859375 C 287.5625 257.214844 287.550781 257.570312 287.507812 257.925781 C 287.464844 258.277344 287.382812 258.625 287.273438 258.960938 C 287.160156 259.300781 287.015625 259.625 286.839844 259.933594 C 286.664062 260.242188 286.457031 260.53125 286.226562 260.800781 C 285.992188 261.070312 285.734375 261.316406 285.453125 261.535156 C 285.171875 261.753906 284.875 261.941406 284.554688 262.101562 C 284.238281 262.261719 283.90625 262.386719 283.5625 262.480469 Z M 283.5625 262.480469 " fill-opacity="1" fill-rule="nonzero"/></g><path fill="#157a2c" d="M 226.386719 221.308594 C 230.667969 218.0625 235.4375 215.914062 240.699219 214.859375 C 240.53125 216.59375 240.222656 218.296875 239.769531 219.980469 C 239.320312 221.660156 238.734375 223.292969 238.011719 224.875 C 237.289062 226.457031 236.441406 227.96875 235.46875 229.410156 C 234.496094 230.851562 233.410156 232.203125 232.210938 233.460938 C 231.011719 234.722656 229.71875 235.875 228.328125 236.917969 C 226.9375 237.960938 225.472656 238.882812 223.925781 239.679688 C 222.382812 240.480469 220.785156 241.144531 219.132812 241.675781 C 217.476562 242.207031 215.792969 242.601562 214.074219 242.851562 C 216.890625 240.625 219.6875 238.402344 222.347656 235.980469 C 226.734375 232.183594 230.597656 227.90625 233.929688 223.152344 C 230.378906 227.695312 226.324219 231.734375 221.773438 235.269531 C 219.132812 237.492188 216.378906 239.382812 213.605469 241.339844 C 214.058594 239.363281 214.679688 237.445312 215.460938 235.578125 C 216.242188 233.707031 217.179688 231.921875 218.269531 230.214844 C 219.355469 228.507812 220.582031 226.90625 221.945312 225.410156 C 223.308594 223.917969 224.789062 222.546875 226.386719 221.308594 Z M 129.429688 215.304688 C 132.476562 212.96875 135.828125 211.203125 139.480469 210.011719 C 141.699219 209.210938 143.917969 208.589844 146.269531 207.988281 C 144.964844 207.433594 143.613281 207.046875 142.210938 206.828125 C 140.8125 206.609375 139.40625 206.566406 137.992188 206.695312 C 136.582031 206.824219 135.207031 207.125 133.871094 207.597656 C 132.535156 208.066406 131.273438 208.695312 130.09375 209.480469 C 128.507812 210.671875 127.144531 212.085938 126.007812 213.714844 C 124.867188 215.347656 124.011719 217.113281 123.4375 219.015625 C 126.996094 220.25 130.613281 220.457031 134.289062 219.640625 C 135.609375 219.285156 136.878906 218.792969 138.09375 218.15625 C 139.304688 217.523438 140.4375 216.761719 141.480469 215.875 C 142.527344 214.988281 143.460938 214 144.289062 212.90625 C 145.117188 211.8125 145.8125 210.640625 146.378906 209.390625 C 144.160156 209.789062 141.941406 210.257812 139.722656 210.835938 C 136.046875 211.761719 132.617188 213.25 129.429688 215.304688 Z M 252.988281 105.367188 C 228.761719 107.589844 226.007812 123.152344 225.808594 133.046875 C 228.027344 130.089844 230.246094 127.175781 232.464844 124.375 C 236.121094 119.867188 240.261719 115.867188 244.890625 112.371094 C 240.480469 116.070312 236.582031 120.25 233.199219 124.910156 C 231.203125 127.777344 229.269531 130.667969 227.363281 133.535156 C 237.238281 131.910156 254.71875 126.152344 252.988281 105.367188 Z M 194.613281 154.277344 C 194.308594 154.128906 193.984375 154.027344 193.644531 153.980469 C 193.304688 153.933594 192.96875 153.941406 192.632812 154 C 192.292969 154.058594 191.976562 154.171875 191.671875 154.332031 C 191.371094 154.492188 191.101562 154.695312 190.863281 154.945312 C 189.929688 155.980469 189.265625 157.164062 188.867188 158.5 C 188.179688 156.664062 187.09375 155.109375 185.605469 153.832031 C 185.234375 153.53125 184.816406 153.308594 184.363281 153.160156 C 183.90625 153.011719 183.4375 152.949219 182.960938 152.972656 C 182.480469 153 182.023438 153.109375 181.582031 153.300781 C 181.144531 153.496094 180.753906 153.761719 180.414062 154.097656 C 179.960938 154.902344 179.730469 155.765625 179.730469 156.6875 C 179.730469 157.613281 179.960938 158.476562 180.414062 159.28125 C 182.140625 163.433594 184.730469 166.957031 188.179688 169.839844 C 189.882812 168.488281 191.355469 166.917969 192.59375 165.132812 C 193.832031 163.34375 194.789062 161.417969 195.457031 159.347656 C 195.988281 157.632812 196.191406 155.320312 194.613281 154.320312 Z M 144.757812 103.144531 C 144.433594 101.496094 144.433594 99.851562 144.757812 98.207031 C 145.046875 96.140625 146.269531 90.558594 142.339844 93.761719 C 140.542969 95.230469 141.144531 100.964844 143.496094 104.300781 C 142.132812 106.085938 141.394531 108.101562 141.277344 110.347656 C 141.71875 109.300781 142.316406 108.359375 143.078125 107.523438 C 143.839844 106.683594 144.71875 105.996094 145.714844 105.457031 C 147.359375 104.5625 149.121094 104.144531 150.996094 104.210938 C 150.378906 103.550781 149.640625 103.089844 148.777344 102.832031 C 148.105469 102.640625 147.421875 102.582031 146.726562 102.652344 C 146.03125 102.726562 145.375 102.925781 144.757812 103.253906 Z M 144.757812 103.144531 " fill-opacity="1" fill-rule="nonzero"/><path fill="#f64b31" d="M 200.628906 212.304688 C 199.40625 212.058594 197.855469 211.746094 196.367188 211.371094 C 196.582031 212.984375 196.691406 214.609375 196.699219 216.238281 L 196.699219 218.949219 L 194.835938 216.972656 C 193.363281 215.425781 191.980469 213.800781 190.6875 212.101562 C 189.289062 213.433594 187.8125 214.664062 186.25 215.792969 L 184.628906 216.972656 L 184.628906 214.949219 C 184.566406 212.824219 184.652344 210.703125 184.898438 208.589844 C 182.769531 208.613281 180.648438 208.527344 178.527344 208.324219 L 175.820312 208.078125 L 178.039062 206.410156 C 179.320312 205.402344 180.667969 204.492188 182.078125 203.675781 C 179.859375 201.898438 177.507812 199.808594 177.085938 199.429688 C 175.3125 199.4375 173.574219 199.683594 171.871094 200.167969 C 170.164062 200.652344 168.554688 201.351562 167.039062 202.277344 C 165.523438 203.199219 164.160156 204.304688 162.945312 205.601562 C 161.734375 206.894531 160.714844 208.328125 159.890625 209.902344 C 155.03125 219.882812 160.46875 232.554688 172.027344 238.226562 C 183.585938 243.894531 196.898438 240.449219 201.757812 230.398438 C 202.414062 228.960938 202.886719 227.464844 203.175781 225.910156 C 203.460938 224.355469 203.558594 222.789062 203.457031 221.210938 C 203.359375 219.628906 203.070312 218.089844 202.589844 216.582031 C 202.113281 215.074219 201.457031 213.648438 200.628906 212.304688 Z M 166.925781 211.703125 C 166.328125 212.5 165.8125 213.34375 165.371094 214.238281 C 164.585938 215.859375 164.089844 217.566406 163.886719 219.359375 C 163.6875 221.152344 163.789062 222.929688 164.195312 224.6875 C 165.417969 230.421875 163.886719 230.554688 161.644531 223.886719 C 160.902344 221.839844 160.582031 219.730469 160.691406 217.554688 C 160.796875 215.378906 161.324219 213.308594 162.265625 211.347656 C 162.652344 210.570312 163.097656 209.832031 163.597656 209.125 C 163.792969 208.855469 164.03125 208.625 164.308594 208.441406 C 164.589844 208.253906 164.890625 208.121094 165.214844 208.042969 C 165.539062 207.964844 165.867188 207.941406 166.199219 207.980469 C 166.53125 208.015625 166.847656 208.109375 167.148438 208.257812 C 168.167969 208.96875 167.945312 210.390625 166.925781 211.703125 Z M 168.210938 207.011719 C 167.101562 206.722656 167.746094 204.921875 170.1875 203.453125 C 171.101562 202.859375 172.09375 202.457031 173.164062 202.246094 C 174.234375 202.035156 175.304688 202.03125 176.375 202.230469 C 177.175781 202.699219 175.84375 203.675781 173.734375 204.964844 C 172.105469 206.21875 170.265625 206.902344 168.210938 207.011719 Z M 170.429688 50.363281 C 170.136719 49.855469 169.917969 49.320312 169.765625 48.753906 C 169.613281 48.191406 169.539062 47.613281 169.539062 47.03125 C 169.539062 46.445312 169.613281 45.867188 169.765625 45.304688 C 169.917969 44.738281 170.136719 44.203125 170.429688 43.695312 C 170.867188 43.257812 171.367188 42.914062 171.929688 42.664062 C 172.492188 42.414062 173.082031 42.277344 173.699219 42.246094 C 174.3125 42.21875 174.914062 42.300781 175.5 42.5 C 176.082031 42.695312 176.613281 42.988281 177.085938 43.382812 C 178.96875 44.988281 180.347656 46.953125 181.214844 49.273438 C 181.734375 47.609375 182.574219 46.125 183.742188 44.828125 C 184.039062 44.535156 184.375 44.289062 184.75 44.097656 C 185.121094 43.90625 185.511719 43.777344 185.925781 43.703125 C 186.335938 43.632812 186.75 43.625 187.167969 43.679688 C 187.582031 43.734375 187.976562 43.851562 188.359375 44.027344 C 190.332031 45.273438 190.15625 48.207031 189.445312 50.453125 C 188.597656 53.082031 187.390625 55.53125 185.820312 57.800781 C 184.253906 60.074219 182.390625 62.070312 180.238281 63.792969 C 178.078125 61.988281 176.167969 59.949219 174.503906 57.679688 C 172.84375 55.40625 171.476562 52.96875 170.40625 50.363281 Z M 145.691406 129.089844 C 141.253906 123.507812 138.4375 110.925781 146.222656 106.855469 C 156.585938 101.363281 161.265625 116.015625 165.238281 122.417969 C 166.871094 125.023438 168.828125 127.34375 171.121094 129.390625 C 173.410156 131.4375 175.9375 133.121094 178.707031 134.445312 C 180.636719 135.402344 186.78125 136.402344 187.226562 138.113281 C 188.15625 141.492188 180.570312 142.136719 178.550781 142.339844 C 166.503906 143.207031 152.503906 137.535156 145.691406 129.089844 Z M 145.691406 129.089844 " fill-opacity="1" fill-rule="nonzero"/><path fill="#57a52c" d="M 250.683594 162.8125 C 249.609375 161.75 248.398438 160.871094 247.054688 160.179688 C 245.710938 159.492188 244.296875 159.019531 242.804688 158.769531 C 242.769531 157.753906 242.605469 156.761719 242.3125 155.792969 C 242.015625 154.824219 241.601562 153.90625 241.066406 153.046875 C 240.53125 152.1875 239.890625 151.410156 239.152344 150.71875 C 238.414062 150.027344 237.597656 149.441406 236.703125 148.964844 C 231.488281 145.738281 225.433594 146.140625 223.148438 149.832031 L 223.148438 150.03125 L 222.371094 149.851562 C 217.601562 149.253906 213.339844 151.855469 212.832031 155.675781 C 212.832031 155.964844 212.832031 156.277344 212.832031 156.566406 C 209.722656 156.011719 206.839844 157.390625 206.328125 159.722656 C 205.820312 162.058594 208.015625 164.660156 211.210938 165.347656 C 211.8125 165.53125 212.425781 165.613281 213.054688 165.59375 C 213.679688 165.574219 214.289062 165.453125 214.875 165.230469 C 215.464844 165.011719 216 164.699219 216.484375 164.300781 C 216.972656 163.902344 217.378906 163.4375 217.710938 162.902344 C 218.636719 163.3125 219.597656 163.585938 220.597656 163.726562 C 221.246094 163.78125 221.898438 163.78125 222.546875 163.726562 C 222.613281 164.84375 222.9375 165.878906 223.523438 166.832031 C 224.109375 167.785156 224.886719 168.542969 225.855469 169.105469 C 226.746094 169.71875 227.730469 170.09375 228.800781 170.226562 C 229.875 170.359375 230.917969 170.238281 231.933594 169.863281 C 232.226562 171.359375 232.742188 172.773438 233.476562 174.109375 C 234.210938 175.445312 235.132812 176.640625 236.238281 177.6875 C 236.828125 178.269531 237.464844 178.796875 238.144531 179.265625 C 237.941406 180.789062 238.105469 182.269531 238.632812 183.710938 C 240.144531 187.757812 243.980469 190.070312 247.222656 188.871094 C 247.585938 188.6875 247.933594 188.476562 248.265625 188.234375 C 248.59375 187.988281 248.898438 187.71875 249.179688 187.417969 C 249.457031 187.121094 249.710938 186.800781 249.933594 186.457031 C 250.15625 186.113281 250.347656 185.753906 250.507812 185.375 C 250.664062 184.996094 250.789062 184.609375 250.878906 184.207031 C 250.96875 183.808594 251.019531 183.402344 251.035156 182.996094 C 251.054688 182.585938 251.035156 182.175781 250.976562 181.769531 C 250.921875 181.363281 250.832031 180.96875 250.703125 180.578125 C 251.441406 180.179688 252.109375 179.679688 252.699219 179.089844 C 256.695312 175.109375 255.894531 167.75 250.683594 162.8125 Z M 215.714844 157.367188 L 215.957031 157.988281 C 216.101562 158.433594 216.316406 158.84375 216.601562 159.210938 C 215.777344 158.8125 215.199219 158.179688 214.871094 157.324219 L 214.714844 156.832031 C 214.699219 156.546875 214.710938 156.261719 214.75 155.976562 C 214.789062 155.691406 214.851562 155.414062 214.945312 155.140625 C 215.039062 154.871094 215.15625 154.609375 215.296875 154.359375 C 215.441406 154.109375 215.605469 153.878906 215.792969 153.660156 C 215.980469 153.445312 216.1875 153.246094 216.414062 153.070312 C 216.640625 152.894531 216.882812 152.738281 217.136719 152.609375 C 217.394531 152.480469 217.660156 152.375 217.933594 152.296875 C 218.210938 152.21875 218.492188 152.167969 218.777344 152.144531 C 219.089844 152.074219 219.410156 152.035156 219.730469 152.03125 C 219.425781 152.082031 219.132812 152.160156 218.84375 152.265625 C 218.554688 152.375 218.277344 152.507812 218.015625 152.667969 C 217.753906 152.828125 217.507812 153.007812 217.277344 153.214844 C 217.050781 153.421875 216.84375 153.648438 216.65625 153.894531 C 216.472656 154.140625 216.3125 154.402344 216.175781 154.679688 C 216.042969 154.957031 215.933594 155.242188 215.851562 155.539062 C 215.773438 155.835938 215.71875 156.140625 215.695312 156.445312 C 215.671875 156.753906 215.679688 157.0625 215.714844 157.367188 Z M 227.050781 161.347656 C 226.257812 161.769531 225.671875 162.394531 225.300781 163.214844 C 224.964844 164.003906 224.882812 164.820312 225.054688 165.660156 C 225.1875 166.257812 225.429688 166.808594 225.789062 167.304688 C 224.925781 166.796875 224.378906 166.054688 224.144531 165.082031 C 224.011719 164.5625 224.011719 164.042969 224.144531 163.527344 C 224.351562 162.945312 224.679688 162.445312 225.132812 162.023438 C 225.582031 161.601562 226.105469 161.3125 226.699219 161.148438 L 227.230469 161.011719 C 227.488281 160.992188 227.746094 160.992188 228.007812 161.011719 C 227.675781 161.085938 227.355469 161.199219 227.050781 161.347656 Z M 226.453125 151.320312 C 225.820312 152.082031 225.371094 152.945312 225.113281 153.902344 C 224.851562 154.863281 224.804688 155.832031 224.96875 156.8125 C 225.164062 157.839844 225.585938 158.765625 226.230469 159.589844 C 225.480469 159.234375 224.851562 158.726562 224.335938 158.074219 C 223.820312 157.421875 223.476562 156.691406 223.304688 155.878906 C 223.175781 154.898438 223.296875 153.949219 223.664062 153.03125 C 224.03125 152.113281 224.597656 151.339844 225.367188 150.71875 C 226.585938 149.632812 228 148.9375 229.605469 148.628906 C 230.078125 148.527344 230.558594 148.46875 231.046875 148.453125 C 229.195312 148.890625 227.664062 149.847656 226.453125 151.320312 Z M 242.582031 176.976562 C 242.042969 177.261719 241.570312 177.628906 241.164062 178.085938 C 241.449219 177.125 242.039062 176.421875 242.9375 175.976562 C 243.160156 175.878906 243.386719 175.800781 243.625 175.75 C 243.863281 175.699219 244.101562 175.671875 244.34375 175.671875 C 244.585938 175.667969 244.824219 175.691406 245.0625 175.738281 C 245.300781 175.785156 245.527344 175.859375 245.75 175.953125 C 245.972656 176.046875 246.183594 176.164062 246.382812 176.304688 C 246.582031 176.441406 246.765625 176.597656 246.929688 176.773438 C 247.097656 176.949219 247.246094 177.140625 247.371094 177.347656 C 247.5 177.554688 247.605469 177.769531 247.6875 178 C 247.789062 178.238281 247.871094 178.480469 247.929688 178.734375 C 247.816406 178.496094 247.679688 178.273438 247.519531 178.066406 C 247.359375 177.859375 247.179688 177.667969 246.980469 177.496094 C 246.785156 177.320312 246.570312 177.171875 246.34375 177.042969 C 246.113281 176.910156 245.875 176.804688 245.628906 176.722656 C 245.378906 176.640625 245.125 176.585938 244.863281 176.554688 C 244.601562 176.523438 244.339844 176.519531 244.078125 176.542969 C 243.820312 176.5625 243.5625 176.609375 243.308594 176.683594 C 243.058594 176.757812 242.816406 176.855469 242.582031 176.976562 Z M 236.546875 166.328125 C 235.613281 167.300781 234.957031 168.433594 234.574219 169.726562 C 234.449219 168.800781 234.503906 167.886719 234.738281 166.984375 C 234.972656 166.078125 235.371094 165.253906 235.925781 164.503906 C 236.0625 164.292969 236.210938 164.09375 236.371094 163.902344 C 237.066406 163.226562 237.867188 162.71875 238.773438 162.378906 C 239.679688 162.035156 240.617188 161.894531 241.585938 161.945312 C 242.882812 162.007812 244.128906 162.300781 245.320312 162.824219 C 246.507812 163.351562 247.566406 164.074219 248.484375 164.992188 C 248.921875 165.433594 249.328125 165.902344 249.707031 166.394531 C 249.273438 165.972656 248.800781 165.59375 248.296875 165.265625 C 247.789062 164.933594 247.257812 164.652344 246.699219 164.425781 C 246.136719 164.195312 245.5625 164.023438 244.96875 163.902344 C 244.375 163.785156 243.777344 163.726562 243.175781 163.722656 C 242.570312 163.71875 241.96875 163.773438 241.375 163.886719 C 240.78125 163.996094 240.203125 164.164062 239.644531 164.386719 C 239.082031 164.613281 238.546875 164.886719 238.035156 165.210938 C 237.527344 165.539062 237.054688 165.910156 236.617188 166.328125 Z M 237.324219 183.445312 C 235.675781 184.105469 234.101562 184.917969 232.605469 185.882812 C 231.113281 186.851562 229.726562 187.949219 228.445312 189.183594 C 227.160156 190.417969 226.011719 191.765625 224.988281 193.222656 C 223.96875 194.683594 223.09375 196.226562 222.371094 197.851562 L 210.480469 190.492188 C 214.714844 187.136719 219.132812 175.730469 214.449219 166.394531 C 215.339844 166.191406 216.152344 165.820312 216.890625 165.28125 C 217.902344 167.285156 218.59375 169.394531 218.972656 171.605469 C 219.351562 173.820312 219.398438 176.039062 219.109375 178.265625 C 220.640625 174.976562 222.058594 171.839844 223.371094 168.617188 C 223.90625 169.183594 224.503906 169.671875 225.167969 170.085938 C 225.671875 170.390625 226.207031 170.640625 226.765625 170.839844 C 226.53125 173.445312 225.96875 175.972656 225.078125 178.429688 C 224.183594 180.886719 222.996094 183.1875 221.503906 185.335938 C 222.523438 184.3125 223.628906 183.40625 224.828125 182.609375 C 226.027344 181.8125 227.296875 181.144531 228.628906 180.605469 C 229.964844 180.070312 231.339844 179.667969 232.753906 179.410156 C 234.171875 179.148438 235.597656 179.035156 237.035156 179.066406 C 236.828125 180.550781 236.945312 182.011719 237.390625 183.445312 Z M 203.046875 211.636719 C 200.328125 211.207031 197.640625 210.621094 194.992188 209.878906 C 195.402344 211.980469 195.617188 214.097656 195.636719 216.238281 C 193.90625 214.40625 192.308594 212.464844 190.84375 210.414062 C 189.253906 212.050781 187.53125 213.535156 185.671875 214.859375 C 185.601562 212.351562 185.769531 209.863281 186.183594 207.390625 C 183.65625 207.488281 181.136719 207.421875 178.617188 207.191406 C 180.316406 205.878906 182.121094 204.738281 184.03125 203.765625 C 181.8125 202.132812 179.699219 200.378906 177.6875 198.496094 C 180.464844 199.082031 183.199219 199.824219 185.894531 200.71875 C 185.453125 198.699219 185.191406 196.652344 185.117188 194.582031 C 187.019531 196.515625 188.773438 198.578125 190.375 200.765625 C 191.757812 199.628906 193.234375 198.644531 194.8125 197.808594 C 194.75 199.511719 194.519531 201.195312 194.125 202.855469 C 196.550781 202.847656 198.972656 202.980469 201.382812 203.253906 C 199.707031 204.460938 197.9375 205.515625 196.078125 206.410156 C 198.503906 208.011719 200.828125 209.753906 203.046875 211.636719 Z M 218.820312 99.097656 C 218.875 97.792969 218.851562 96.488281 218.742188 95.1875 C 218.636719 93.886719 218.449219 92.597656 218.183594 91.316406 C 217.917969 90.039062 217.574219 88.78125 217.15625 87.546875 C 216.734375 86.3125 216.238281 85.105469 215.667969 83.933594 C 215.097656 82.757812 214.457031 81.625 213.746094 80.527344 C 213.039062 79.433594 212.261719 78.386719 211.421875 77.386719 C 210.582031 76.390625 209.6875 75.445312 208.730469 74.558594 C 207.773438 73.671875 206.765625 72.847656 205.707031 72.085938 L 205.597656 72.085938 L 205.597656 72.195312 C 205.539062 71.320312 205.289062 70.503906 204.847656 69.746094 C 204.410156 68.984375 203.820312 68.367188 203.089844 67.882812 C 201.730469 67.039062 200.25 66.660156 198.652344 66.75 C 198.257812 66.175781 197.785156 65.679688 197.226562 65.261719 C 196.667969 64.84375 196.058594 64.53125 195.394531 64.316406 C 194.730469 64.101562 194.050781 64.003906 193.355469 64.015625 C 192.660156 64.027344 191.984375 64.15625 191.332031 64.394531 C 191.941406 64.234375 192.5625 64.171875 193.195312 64.203125 C 193.828125 64.234375 194.4375 64.359375 195.03125 64.574219 C 195.625 64.789062 196.175781 65.089844 196.679688 65.472656 C 197.183594 65.855469 197.617188 66.300781 197.988281 66.816406 C 197.472656 66.875 196.980469 67.003906 196.503906 67.203125 C 196.027344 67.402344 195.585938 67.660156 195.179688 67.984375 C 194.777344 68.304688 194.425781 68.679688 194.125 69.097656 C 193.824219 69.519531 193.589844 69.972656 193.417969 70.460938 C 193.417969 72.683594 196.457031 74.152344 197.855469 72.53125 C 198.480469 72.007812 198.933594 71.363281 199.21875 70.597656 C 199.503906 69.832031 199.582031 69.046875 199.453125 68.238281 C 200.472656 68.207031 201.390625 68.503906 202.203125 69.128906 C 202.921875 69.628906 203.457031 70.277344 203.816406 71.074219 C 204.175781 71.871094 204.300781 72.707031 204.199219 73.574219 C 202.445312 77.355469 197.675781 87.335938 192.683594 96.5625 C 188.46875 104.300781 183.167969 111.199219 176.777344 117.261719 C 179.941406 117.878906 183.089844 117.8125 186.226562 117.058594 C 189.054688 116.367188 191.714844 115.257812 194.203125 113.742188 C 196.6875 112.222656 198.890625 110.367188 200.804688 108.167969 C 201.492188 114.835938 202.800781 120.730469 203.199219 123.375 C 203.277344 123.292969 203.34375 123.203125 203.402344 123.109375 C 204.246094 121.878906 204.984375 120.589844 205.621094 119.238281 C 205.226562 119.097656 204.875 118.890625 204.566406 118.613281 C 204.253906 118.335938 204.003906 118.011719 203.816406 117.640625 C 203.628906 117.269531 203.519531 116.875 203.484375 116.457031 C 203.449219 116.042969 203.492188 115.636719 203.613281 115.238281 C 203.734375 114.839844 203.925781 114.476562 204.1875 114.152344 C 204.445312 113.828125 204.757812 113.5625 205.121094 113.355469 C 205.480469 113.152344 205.871094 113.023438 206.28125 112.964844 C 206.695312 112.910156 207.101562 112.933594 207.503906 113.035156 C 207.777344 113.109375 208.035156 113.210938 208.28125 113.347656 L 208.746094 112.125 C 208.40625 112.15625 208.066406 112.15625 207.726562 112.125 C 207.457031 112.078125 207.195312 112.007812 206.9375 111.910156 C 206.679688 111.8125 206.4375 111.691406 206.203125 111.546875 C 205.972656 111.402344 205.753906 111.234375 205.554688 111.046875 C 205.355469 110.859375 205.175781 110.652344 205.015625 110.429688 C 204.859375 110.207031 204.722656 109.96875 204.609375 109.71875 C 204.496094 109.46875 204.410156 109.210938 204.347656 108.941406 C 204.285156 108.675781 204.25 108.402344 204.242188 108.128906 C 204.234375 107.855469 204.253906 107.582031 204.296875 107.3125 C 204.34375 107.039062 204.414062 106.777344 204.511719 106.519531 C 204.609375 106.261719 204.730469 106.019531 204.875 105.785156 C 205.019531 105.550781 205.1875 105.335938 205.375 105.136719 C 205.5625 104.9375 205.765625 104.757812 205.992188 104.597656 C 206.214844 104.4375 206.449219 104.300781 206.699219 104.1875 C 206.949219 104.074219 207.207031 103.988281 207.476562 103.925781 C 207.742188 103.863281 208.011719 103.828125 208.285156 103.820312 C 208.5625 103.8125 208.832031 103.832031 209.101562 103.875 C 209.777344 103.964844 210.398438 104.195312 210.964844 104.566406 C 211.078125 103.964844 211.167969 103.367188 211.253906 102.765625 C 210.59375 103.050781 209.90625 103.15625 209.191406 103.078125 C 208.910156 103.078125 208.628906 103.050781 208.351562 102.992188 C 208.074219 102.9375 207.804688 102.851562 207.542969 102.738281 C 207.285156 102.628906 207.039062 102.492188 206.804688 102.332031 C 206.574219 102.167969 206.359375 101.984375 206.164062 101.78125 C 205.96875 101.574219 205.796875 101.351562 205.644531 101.109375 C 205.496094 100.871094 205.371094 100.617188 205.273438 100.351562 C 205.175781 100.085938 205.105469 99.8125 205.0625 99.53125 C 205.019531 99.25 205.003906 98.96875 205.019531 98.683594 C 205.03125 98.402344 205.074219 98.125 205.144531 97.847656 C 205.21875 97.574219 205.316406 97.308594 205.441406 97.054688 C 205.5625 96.800781 205.714844 96.558594 205.886719 96.335938 C 206.058594 96.113281 206.253906 95.90625 206.46875 95.722656 C 206.683594 95.539062 206.914062 95.378906 207.164062 95.238281 C 207.410156 95.101562 207.671875 94.992188 207.941406 94.90625 C 208.210938 94.824219 208.488281 94.765625 208.769531 94.738281 C 209.050781 94.710938 209.332031 94.710938 209.613281 94.738281 C 210.285156 94.726562 210.921875 94.875 211.519531 95.183594 C 211.519531 94.628906 211.519531 94.074219 211.367188 93.496094 C 210.816406 93.777344 210.230469 93.917969 209.613281 93.917969 C 209.339844 93.9375 209.066406 93.929688 208.796875 93.898438 C 208.523438 93.863281 208.257812 93.804688 207.996094 93.71875 C 207.738281 93.632812 207.488281 93.523438 207.25 93.386719 C 207.007812 93.253906 206.785156 93.097656 206.578125 92.917969 C 206.371094 92.738281 206.183594 92.539062 206.015625 92.324219 C 205.84375 92.109375 205.699219 91.878906 205.574219 91.632812 C 205.453125 91.386719 205.355469 91.132812 205.28125 90.867188 C 205.207031 90.601562 205.160156 90.332031 205.140625 90.058594 C 205.121094 89.785156 205.125 89.511719 205.160156 89.242188 C 205.191406 88.96875 205.25 88.699219 205.335938 88.441406 C 205.421875 88.179688 205.535156 87.929688 205.667969 87.691406 C 205.804688 87.453125 205.960938 87.226562 206.140625 87.019531 C 206.316406 86.8125 206.515625 86.625 206.730469 86.453125 C 206.949219 86.285156 207.179688 86.140625 207.421875 86.015625 C 207.667969 85.890625 207.921875 85.792969 208.1875 85.71875 C 208.449219 85.648438 208.71875 85.601562 208.992188 85.578125 C 209.25 85.558594 209.507812 85.558594 209.769531 85.578125 C 209.636719 85.070312 209.480469 84.578125 209.324219 84.089844 C 209.136719 84.148438 208.941406 84.191406 208.746094 84.222656 C 208.3125 84.304688 207.875 84.296875 207.441406 84.203125 C 207.003906 84.109375 206.605469 83.933594 206.242188 83.679688 C 205.875 83.425781 205.574219 83.109375 205.335938 82.734375 C 205.097656 82.359375 204.941406 81.949219 204.863281 81.511719 C 204.792969 81.117188 204.789062 80.726562 204.859375 80.332031 C 204.929688 79.9375 205.066406 79.566406 205.269531 79.222656 C 205.476562 78.878906 205.734375 78.585938 206.046875 78.335938 C 206.359375 78.085938 206.703125 77.898438 207.082031 77.777344 C 206.375 76.066406 205.753906 74.730469 205.308594 73.886719 C 205.308594 73.640625 205.308594 73.417969 205.308594 73.175781 L 205.488281 72.328125 C 206.707031 73.953125 213.363281 88.425781 212.320312 99.007812 C 212.628906 109.566406 203.824219 125.398438 202.914062 124.574219 C 203.222656 125.730469 218.023438 116.4375 218.820312 99.097656 Z M 194.546875 70.460938 C 194.980469 69.753906 195.554688 69.203125 196.28125 68.808594 C 197.007812 68.410156 197.78125 68.21875 198.609375 68.238281 C 199.363281 70.773438 195.035156 73.929688 194.546875 70.460938 Z M 205.488281 72.285156 Z M 124.214844 179 C 129.089844 182.058594 133.527344 185.660156 137.527344 189.804688 C 139.921875 192.226562 142.1875 194.738281 144.425781 197.296875 C 142.421875 197.050781 140.453125 196.636719 138.523438 196.054688 C 136.589844 195.46875 134.71875 194.726562 132.914062 193.820312 C 131.109375 192.914062 129.394531 191.863281 127.769531 190.660156 C 126.144531 189.460938 124.632812 188.128906 123.238281 186.667969 C 119.554688 182.761719 116.914062 178.238281 115.316406 173.109375 C 118.132812 173.085938 120.898438 173.433594 123.621094 174.15625 C 126.34375 174.875 128.921875 175.941406 131.359375 177.355469 C 133.136719 178.40625 134.796875 179.621094 136.339844 181 C 137.878906 182.378906 139.273438 183.894531 140.519531 185.542969 C 141.765625 187.195312 142.839844 188.953125 143.746094 190.8125 C 144.648438 192.675781 145.363281 194.605469 145.890625 196.605469 C 143.40625 194.027344 140.875 191.492188 138.214844 189.09375 C 133.972656 185.121094 129.304688 181.734375 124.214844 178.933594 Z M 172.425781 79.019531 C 173.386719 80.4375 174.160156 81.945312 174.746094 83.550781 C 175.335938 85.160156 175.714844 86.8125 175.894531 88.511719 C 176.074219 90.214844 176.042969 91.910156 175.800781 93.605469 C 175.558594 95.296875 175.113281 96.9375 174.46875 98.519531 C 173.734375 95.761719 172.9375 93.027344 171.9375 90.359375 C 170.441406 85.980469 168.273438 81.964844 165.4375 78.308594 C 167.988281 82.117188 169.855469 86.238281 171.03125 90.671875 C 171.785156 93.273438 172.359375 95.917969 172.894531 98.609375 C 171.382812 97.945312 169.964844 97.128906 168.636719 96.152344 C 167.308594 95.171875 166.105469 94.0625 165.027344 92.816406 C 163.945312 91.570312 163.015625 90.21875 162.234375 88.765625 C 161.453125 87.3125 160.84375 85.792969 160.402344 84.203125 C 159.894531 82.066406 159.679688 79.902344 159.757812 77.710938 C 159.839844 75.519531 160.207031 73.375 160.867188 71.285156 C 163.152344 71.933594 165.28125 72.917969 167.257812 74.238281 C 169.230469 75.558594 170.957031 77.152344 172.425781 79.019531 Z M 123.882812 161.082031 C 127.09375 158.984375 130.589844 157.644531 134.375 157.054688 C 131.300781 155.636719 128.078125 155.058594 124.703125 155.320312 L 124.304688 152.789062 C 128.167969 152.460938 131.867188 153.105469 135.398438 154.722656 C 132.125 152.265625 129.121094 149.519531 126.386719 146.472656 L 128.296875 144.761719 C 131.636719 148.558594 135.4375 151.808594 139.699219 154.523438 L 139.902344 154.65625 C 139.894531 154.707031 139.894531 154.757812 139.902344 154.8125 C 139.5 155.433594 139.226562 156.109375 139.078125 156.832031 C 139.078125 156.832031 139.078125 156.96875 139.078125 157.011719 C 138.941406 157.613281 138.882812 158.21875 138.902344 158.835938 C 138.890625 159.019531 138.890625 159.207031 138.902344 159.390625 C 136.519531 159.328125 134.179688 159.617188 131.882812 160.261719 C 129.585938 160.90625 127.4375 161.875 125.433594 163.171875 Z M 131.914062 142.539062 L 134.355469 141.847656 C 135.566406 145.292969 137.433594 148.339844 139.945312 150.988281 C 139.566406 150.273438 139.234375 149.5625 138.925781 148.761719 C 138.15625 147.136719 137.667969 145.425781 137.460938 143.640625 C 137.25 141.851562 137.332031 140.074219 137.703125 138.3125 L 140.144531 139.046875 C 139.863281 140.527344 139.820312 142.015625 140.015625 143.507812 C 140.207031 145 140.628906 146.425781 141.277344 147.785156 C 141.847656 149.148438 142.550781 150.4375 143.382812 151.652344 C 142.757812 151.886719 142.183594 152.203125 141.652344 152.609375 L 141.210938 152.988281 C 140.734375 153.445312 140.3125 153.949219 139.945312 154.5 C 136.257812 151.191406 133.582031 147.207031 131.914062 142.539062 Z M 131.914062 142.539062 " fill-opacity="1" fill-rule="nonzero"/><path fill="#f68302" d="M 169.652344 179.066406 L 169.808594 179.066406 Z M 172.425781 179.957031 L 172.25 179.957031 Z M 168.789062 178.777344 L 168.65625 178.777344 Z M 153.257812 172.351562 L 151.925781 171.730469 Z M 144.292969 167.261719 C 143.804688 166.882812 143.40625 166.527344 142.984375 166.148438 C 143.371094 166.535156 143.804688 166.90625 144.292969 167.261719 Z M 166.480469 177.933594 L 165.992188 177.753906 Z M 163.152344 176.644531 L 161.933594 176.152344 Z M 156.675781 173.886719 L 155.519531 173.375 Z M 173.292969 180.222656 L 173.070312 180.222656 Z M 161.800781 176.132812 Z M 155.585938 154.320312 C 150.304688 151.164062 146.246094 150.609375 143.382812 151.742188 C 142.757812 151.972656 142.183594 152.292969 141.652344 152.699219 L 141.210938 153.078125 C 140.734375 153.535156 140.3125 154.039062 139.945312 154.589844 C 139.941406 154.640625 139.941406 154.691406 139.945312 154.742188 C 139.546875 155.367188 139.273438 156.042969 139.125 156.765625 C 139.125 156.765625 139.125 156.902344 139.125 156.945312 C 138.988281 157.546875 138.925781 158.152344 138.945312 158.769531 C 138.9375 158.953125 138.9375 159.136719 138.945312 159.324219 C 139.210938 160.652344 139.703125 161.890625 140.421875 163.039062 C 141.140625 164.191406 142.039062 165.175781 143.117188 165.992188 C 144.78125 163.183594 146.875 160.746094 149.398438 158.679688 C 147.515625 161.417969 145.84375 164.277344 144.382812 167.261719 C 145.203125 167.878906 146.050781 168.449219 146.933594 168.972656 L 145.890625 168.304688 C 147.570312 165.363281 149.714844 162.8125 152.324219 160.65625 C 150.410156 163.351562 148.695312 166.167969 147.179688 169.105469 L 148.796875 170.015625 C 150.464844 167.160156 152.566406 164.671875 155.097656 162.546875 C 153.320312 165.195312 151.699219 167.9375 150.238281 170.773438 L 151.949219 171.640625 C 153.59375 168.964844 155.632812 166.636719 158.070312 164.660156 C 156.386719 167.171875 154.832031 169.765625 153.414062 172.441406 L 155.210938 173.285156 C 156.773438 170.742188 158.703125 168.519531 161 166.617188 C 159.914062 168.484375 157.894531 171.21875 156.5625 173.863281 L 158.449219 174.730469 C 159.941406 172.398438 161.761719 170.363281 163.90625 168.617188 C 162.886719 170.328125 161.089844 172.820312 159.78125 175.285156 L 161.777344 176.132812 C 163.179688 174.035156 164.859375 172.1875 166.8125 170.59375 C 165.902344 172.175781 164.328125 174.398438 163.0625 176.644531 L 165.171875 177.464844 C 166.476562 175.636719 168 174.011719 169.742188 172.597656 C 168.921875 173.996094 167.523438 175.929688 166.390625 177.910156 L 168.609375 178.734375 C 169.789062 177.179688 171.132812 175.796875 172.648438 174.574219 C 171.9375 175.796875 170.808594 177.398438 169.765625 179.019531 L 172.207031 179.800781 C 173.207031 178.566406 174.332031 177.453125 175.578125 176.464844 C 174.980469 177.464844 174.113281 178.6875 173.359375 180.089844 C 178.21875 181.488281 182.011719 181.933594 182.878906 180.488281 C 185.230469 176.574219 163.664062 159.167969 155.585938 154.320312 Z M 165.195312 177.464844 L 165.925781 177.730469 Z M 165.195312 177.464844 " fill-opacity="1" fill-rule="nonzero"/><g fill="#64b636" fill-opacity="1"><g transform="translate(129.398881, 324.549178)"><g><path d="M 26.453125 -2.65625 C 26.410156 -2.238281 26.390625 -1.703125 26.390625 -1.046875 C 26.335938 -0.210938 26.265625 0.351562 26.171875 0.65625 C 26.078125 0.96875 25.863281 1.179688 25.53125 1.296875 C 25.207031 1.410156 24.648438 1.46875 23.859375 1.46875 C 22.597656 1.46875 21.804688 1.242188 21.484375 0.796875 C 21.160156 0.359375 20.984375 -0.179688 20.953125 -0.828125 C 20.929688 -1.484375 20.898438 -1.953125 20.859375 -2.234375 C 19.921875 -1.441406 18.867188 -0.835938 17.703125 -0.421875 C 16.535156 -0.00390625 15.347656 0.203125 14.140625 0.203125 C 12.972656 0.203125 11.863281 0.00390625 10.8125 -0.390625 C 9.757812 -0.785156 8.835938 -1.378906 8.046875 -2.171875 C 6.367188 -3.804688 5.070312 -6.113281 4.15625 -9.09375 C 3.25 -12.082031 2.796875 -15.253906 2.796875 -18.609375 C 2.796875 -21.597656 3.179688 -24.382812 3.953125 -26.96875 C 4.722656 -29.5625 5.851562 -31.628906 7.34375 -33.171875 C 7.957031 -33.828125 8.679688 -34.351562 9.515625 -34.75 C 10.359375 -35.144531 11.410156 -35.550781 12.671875 -35.96875 C 14.253906 -36.394531 15.816406 -36.742188 17.359375 -37.015625 C 18.941406 -37.390625 19.734375 -38.375 19.734375 -39.96875 C 19.734375 -40.851562 19.640625 -42.132812 19.453125 -43.8125 C 19.410156 -44.226562 19.363281 -44.691406 19.3125 -45.203125 C 19.269531 -45.722656 19.25 -46.304688 19.25 -46.953125 C 19.25 -48.078125 19.429688 -49 19.796875 -49.71875 C 20.171875 -50.445312 20.828125 -50.972656 21.765625 -51.296875 C 22.273438 -51.484375 22.789062 -51.578125 23.3125 -51.578125 C 24.988281 -51.578125 25.828125 -50.203125 25.828125 -47.453125 C 25.828125 -47.359375 25.753906 -46.257812 25.609375 -44.15625 C 25.472656 -43.320312 25.40625 -42.578125 25.40625 -41.921875 C 25.3125 -36.597656 25.265625 -32.5625 25.265625 -29.8125 C 25.265625 -26.5 25.285156 -24.003906 25.328125 -22.328125 C 25.378906 -21.015625 25.472656 -19.539062 25.609375 -17.90625 C 25.753906 -16.28125 25.847656 -15.117188 25.890625 -14.421875 C 26.316406 -10.546875 26.53125 -7.375 26.53125 -4.90625 C 26.53125 -3.914062 26.503906 -3.164062 26.453125 -2.65625 Z M 14.28125 -2.65625 C 18.332031 -2.65625 20.359375 -7.878906 20.359375 -18.328125 C 20.359375 -20.203125 20.300781 -22.234375 20.1875 -24.421875 C 20.070312 -26.617188 19.992188 -28.113281 19.953125 -28.90625 C 19.765625 -31.707031 19.671875 -33.363281 19.671875 -33.875 C 17.242188 -33.5 15.398438 -32.984375 14.140625 -32.328125 C 12.878906 -31.679688 11.894531 -30.710938 11.1875 -29.421875 C 10.488281 -28.140625 9.910156 -26.21875 9.453125 -23.65625 C 9.171875 -22.164062 9.03125 -20.039062 9.03125 -17.28125 C 9.03125 -13.363281 9.425781 -9.945312 10.21875 -7.03125 C 11.007812 -4.113281 12.363281 -2.65625 14.28125 -2.65625 Z M 14.28125 -2.65625 "/></g></g></g><g fill="#64b636" fill-opacity="1"><g transform="translate(158.722327, 324.549178)"><g><path d="M 3.359375 -8.390625 C 2.984375 -10.023438 2.796875 -12.035156 2.796875 -14.421875 C 2.796875 -18.285156 3.4375 -21.957031 4.71875 -25.4375 C 6.007812 -28.914062 7.9375 -31.585938 10.5 -33.453125 C 12.457031 -34.847656 14.695312 -35.546875 17.21875 -35.546875 C 19.21875 -35.546875 21.054688 -35.054688 22.734375 -34.078125 C 24.421875 -33.097656 25.640625 -31.722656 26.390625 -29.953125 C 26.992188 -28.597656 27.46875 -26.765625 27.8125 -24.453125 C 28.164062 -22.148438 28.34375 -19.738281 28.34375 -17.21875 C 28.34375 -14.039062 28.015625 -11.132812 27.359375 -8.5 C 26.710938 -5.863281 25.710938 -3.941406 24.359375 -2.734375 C 22.347656 -0.910156 19.664062 0 16.3125 0 C 13.269531 0 10.476562 -0.753906 7.9375 -2.265625 C 5.394531 -3.785156 3.867188 -5.828125 3.359375 -8.390625 Z M 8.390625 -14.5625 C 8.347656 -11.4375 8.78125 -8.566406 9.6875 -5.953125 C 10.601562 -3.335938 12.34375 -1.867188 14.90625 -1.546875 C 16.582031 -1.359375 17.898438 -1.832031 18.859375 -2.96875 C 19.816406 -4.113281 20.578125 -5.691406 21.140625 -7.703125 C 21.503906 -9.191406 21.847656 -11.148438 22.171875 -13.578125 C 22.503906 -16.003906 22.671875 -18.40625 22.671875 -20.78125 C 22.671875 -23.769531 22.378906 -26.382812 21.796875 -28.625 C 21.210938 -30.863281 20.242188 -32.40625 18.890625 -33.25 C 18.335938 -33.613281 17.734375 -33.796875 17.078125 -33.796875 C 15.441406 -33.796875 13.96875 -32.546875 12.65625 -30.046875 C 11.351562 -27.554688 10.316406 -24.722656 9.546875 -21.546875 C 8.773438 -18.378906 8.390625 -16.050781 8.390625 -14.5625 Z M 8.390625 -14.5625 "/></g></g></g><g fill="#64b636" fill-opacity="1"><g transform="translate(189.865373, 324.549178)"><g><path d="M 30.65625 -1.40625 C 30.84375 -0.9375 30.691406 -0.582031 30.203125 -0.34375 C 29.710938 -0.113281 29.070312 0 28.28125 0 C 27.382812 0 26.707031 -0.09375 26.25 -0.28125 C 25.269531 -0.695312 24.566406 -1.628906 24.140625 -3.078125 C 23.722656 -4.523438 23.441406 -5.84375 23.296875 -7.03125 C 23.160156 -8.21875 23.070312 -8.953125 23.03125 -9.234375 C 22.9375 -9.703125 22.890625 -10.894531 22.890625 -12.8125 C 22.890625 -14.957031 22.816406 -16.765625 22.671875 -18.234375 C 22.535156 -19.703125 22.253906 -20.691406 21.828125 -21.203125 C 21.648438 -21.390625 20.789062 -21.484375 19.25 -21.484375 C 18.21875 -21.484375 17.222656 -21.445312 16.265625 -21.375 C 15.316406 -21.3125 14.75 -21.253906 14.5625 -21.203125 C 13.757812 -20.828125 13.226562 -20.40625 12.96875 -19.9375 C 12.71875 -19.476562 12.507812 -18.882812 12.34375 -18.15625 C 12.1875 -17.4375 12.0625 -16.84375 11.96875 -16.375 C 11.875 -16.09375 11.554688 -14.578125 11.015625 -11.828125 C 10.484375 -9.078125 9.691406 -6.472656 8.640625 -4.015625 C 7.585938 -1.566406 6.476562 -0.34375 5.3125 -0.34375 C 4.570312 -0.34375 3.804688 -0.90625 3.015625 -2.03125 C 2.867188 -2.257812 2.796875 -2.5625 2.796875 -2.9375 C 2.796875 -4.25 3.453125 -6.863281 4.765625 -10.78125 C 5.035156 -11.519531 5.3125 -12.378906 5.59375 -13.359375 C 5.96875 -14.765625 6.273438 -16.609375 6.515625 -18.890625 L 7.140625 -22.8125 C 7.609375 -25.050781 8.472656 -28.035156 9.734375 -31.765625 C 10.753906 -35.128906 11.40625 -37.28125 11.6875 -38.21875 C 12.25 -40.3125 13.066406 -42.09375 14.140625 -43.5625 C 15.210938 -45.03125 16.351562 -45.765625 17.5625 -45.765625 C 18.96875 -45.765625 20.300781 -44.644531 21.5625 -42.40625 C 23.375 -39.1875 24.609375 -35.957031 25.265625 -32.71875 C 25.921875 -29.476562 26.476562 -25.3125 26.9375 -20.21875 C 27.3125 -16.164062 27.742188 -12.710938 28.234375 -9.859375 C 28.722656 -7.015625 29.53125 -4.195312 30.65625 -1.40625 Z M 14.0625 -25.046875 L 14.0625 -24.84375 C 14.0625 -24.707031 14.117188 -24.578125 14.234375 -24.453125 C 14.359375 -24.335938 14.515625 -24.28125 14.703125 -24.28125 L 20.71875 -24.28125 C 20.90625 -24.28125 21.054688 -24.347656 21.171875 -24.484375 C 21.285156 -24.628906 21.320312 -24.796875 21.28125 -24.984375 C 21.1875 -25.453125 20.984375 -26.609375 20.671875 -28.453125 C 20.367188 -30.296875 20.039062 -32.007812 19.6875 -33.59375 C 19.34375 -35.175781 18.960938 -36.503906 18.546875 -37.578125 C 18.398438 -38.003906 18.097656 -38.21875 17.640625 -38.21875 C 17.171875 -38.21875 16.863281 -37.984375 16.71875 -37.515625 C 16.71875 -37.460938 16.535156 -36.410156 16.171875 -34.359375 C 16.078125 -33.890625 15.957031 -33.210938 15.8125 -32.328125 C 15.675781 -31.441406 15.535156 -30.789062 15.390625 -30.375 Z M 14.0625 -25.046875 "/></g></g></g><g fill="#64b636" fill-opacity="1"><g transform="translate(223.387885, 324.549178)"><g><path d="M 15.8125 -10.921875 C 15.8125 -10.546875 15.765625 -9.84375 15.671875 -8.8125 C 15.578125 -7.789062 15.53125 -7.023438 15.53125 -6.515625 C 15.53125 -5.804688 15.601562 -5.175781 15.75 -4.625 C 15.9375 -3.875 16.03125 -3.359375 16.03125 -3.078125 L 16.03125 -2.796875 C 16.03125 -2.703125 16.144531 -2.617188 16.375 -2.546875 C 16.601562 -2.484375 16.953125 -2.332031 17.421875 -2.09375 C 18.640625 -2.050781 19.617188 -1.9375 20.359375 -1.75 C 21.109375 -1.5625 21.367188 -1.328125 21.140625 -1.046875 C 20.710938 -0.535156 19.3125 -0.28125 16.9375 -0.28125 C 16 -0.28125 14.785156 -0.328125 13.296875 -0.421875 C 12.597656 -0.460938 11.804688 -0.484375 10.921875 -0.484375 C 10.921875 -0.484375 10.894531 -0.484375 10.84375 -0.484375 C 10.375 -0.484375 9.789062 -0.414062 9.09375 -0.28125 C 7.695312 -0.09375 6.554688 0 5.671875 0 C 4.316406 0 3.382812 -0.253906 2.875 -0.765625 C 2.539062 -1.097656 2.769531 -1.34375 3.5625 -1.5 C 4.363281 -1.664062 4.785156 -1.75 4.828125 -1.75 C 5.484375 -2.03125 6.066406 -2.171875 6.578125 -2.171875 C 6.898438 -2.171875 7.191406 -2.144531 7.453125 -2.09375 C 7.710938 -2.050781 7.957031 -2.03125 8.1875 -2.03125 C 8.976562 -2.03125 9.609375 -2.492188 10.078125 -3.421875 C 10.492188 -4.265625 10.703125 -5.597656 10.703125 -7.421875 C 10.703125 -8.347656 10.675781 -9.171875 10.625 -9.890625 C 10.582031 -10.617188 10.539062 -11.238281 10.5 -11.75 C 10.3125 -13.625 10.238281 -14.882812 10.28125 -15.53125 L 10.703125 -41.84375 L 8.671875 -41.78125 C 6.015625 -41.78125 4.6875 -42.25 4.6875 -43.1875 C 4.6875 -43.414062 4.734375 -43.597656 4.828125 -43.734375 C 5.203125 -44.484375 6.835938 -44.859375 9.734375 -44.859375 C 11.453125 -44.859375 13.160156 -44.773438 14.859375 -44.609375 C 16.566406 -44.453125 17.5625 -44.375 17.84375 -44.375 C 19.382812 -44.375 20.644531 -44.328125 21.625 -44.234375 C 22.601562 -44.140625 23.09375 -43.789062 23.09375 -43.1875 C 23.09375 -42.90625 22.882812 -42.550781 22.46875 -42.125 C 22.1875 -41.800781 21.695312 -41.640625 21 -41.640625 C 20.625 -41.640625 20.015625 -41.734375 19.171875 -41.921875 C 18.941406 -41.960938 18.675781 -42.003906 18.375 -42.046875 C 18.070312 -42.097656 17.753906 -42.125 17.421875 -42.125 C 16.910156 -42.125 16.539062 -42.007812 16.3125 -41.78125 C 16.03125 -41.5 15.890625 -40.613281 15.890625 -39.125 C 15.890625 -38.144531 15.9375 -37.035156 16.03125 -35.796875 C 16.125 -34.554688 16.171875 -33.773438 16.171875 -33.453125 Z M 15.8125 -10.921875 "/></g></g></g></svg>